<svg xmlns="http://www.w3.org/2000/svg" xmlns:xlink="http://www.w3.org/1999/xlink" viewBox="0 0 642.87 873.21"><defs><style>.a{fill:url(#a);}.b{fill:#064d29;}.c{fill:#00adcc;}.d{fill:#00557e;}.e{opacity:0.9;fill:url(#b);}.f{fill:url(#c);}</style><linearGradient id="a" x1="622.03" y1="130.17" x2="122.56" y2="746.64" gradientUnits="userSpaceOnUse"><stop offset="0" stop-color="#50b957"/><stop offset="0.54" stop-color="#168040"/><stop offset="1" stop-color="#064d29"/></linearGradient><radialGradient id="b" cx="524" cy="443" r="397.8" gradientUnits="userSpaceOnUse"><stop offset="0" stop-color="#14bdc3"/><stop offset="0.65" stop-color="#0584a9"/><stop offset="1" stop-color="#00557e"/></radialGradient><linearGradient id="c" x1="658.03" y1="159.34" x2="158.56" y2="775.8" xlink:href="#a"/></defs><title>pedlg</title><path class="a" d="M515.8,228.86c-3.41-17.87-12.39-80.37,18.65-121.67C565.15,66.34,599.11,69,623.91,71c5,.39,9.58.8,13.83.75,23.58-.11,63.27-18.83,63.67-19l10-4.75,2.71,10.74c.86,3.39,20.2,83.66-46.52,143.16C611,252.36,548.08,245.31,529,241.64Z" transform="translate(-175.46 -47.96)"/><path class="b" d="M714.13,58.7,711.42,48l-10,4.75c-.4.19-40.09,18.91-63.67,19-4.25,0-8.87-.36-13.83-.75-24.8-2-58.76-4.64-89.46,36.21-31,41.3-22.06,103.8-18.65,121.67l-22,55.8,18.28.09L529,241.64c19.12,3.67,82,10.72,138.65-39.78C734.33,142.36,715,62.09,714.13,58.7ZM531.21,207.62c-2.33-24.12-2.14-63,17.78-89.5,24.69-32.86,49.51-30.9,73.48-29,5.36.42,10.42.82,15.36.8,19.38-.09,45.81-9.85,60.48-16,2.59,22.14,2.68,73.77-42.81,114.34A146.76,146.76,0,0,1,541.14,225l-9.24-.92Z" transform="translate(-175.46 -47.96)"/><path class="b" d="M540.76,225c11.6-16.33,34.77-46.84,60.6-68.7,28.14-23.82,62.86-37.82,63.2-38l-6.75-16.86A285.49,285.49,0,0,0,602,132.79l.37-10.57-18.17-.64-.95,26.49c-21.58,19.59-40.09,43.33-52,59.55l.69,16.49Z" transform="translate(-175.46 -47.96)"/><path class="c" d="M511.78,284.75l-18.35-.16C320.92,288.1,181.67,429.52,181.67,602.85c0,175.52,142.8,318.32,318.33,318.32s318.32-142.8,318.33-318.31C818.33,431.28,681.87,291,511.78,284.75ZM500,903c-165.5,0-300.14-134.64-300.14-300.13A300.53,300.53,0,0,1,493.54,302.78l17.82.16A300.51,300.51,0,0,1,800.14,602.86C800.13,768.35,665.49,903,500,903Z" transform="translate(-175.46 -47.96)"/><path class="c" d="M500.5,284.7l-37.73,43.24-86.52,28.74a12.8,12.8,0,0,0-7.76,7l-24.16,55.5a11.83,11.83,0,0,0,1.44,11.91l35.29,46.84c-5.05,4.37-10,10.73-15.85,18.63-2.57,3.47-5,6.74-6.69,8.58-1.46,1.59-2.92,3.15-4.37,4.7-7.59,8.09-15.44,16.46-21,27.63C320.87,562,323.35,590.6,339.59,612c15.71,20.71,41.61,31.24,69.25,28.16a107.29,107.29,0,0,0,12.76-2.44c11.2-2.63,14.75-2.89,18.35.3,1.74,1.55,1.9,1.84,1.87,7.1A45.77,45.77,0,0,0,443,657.4c2,7.61,7,12.87,11,17.09,2,2.1,4.1,4.27,4.74,5.73,4.07,9.25,2.3,14.37-1.59,25.6-.33,1-.67,1.94-1,2.95-5.91,17.33,2.32,34.51,9.59,49.67a149.53,149.53,0,0,1,6,13.68c11.75,33,20.56,40.6,27.63,43.64a28.44,28.44,0,0,0,11.4,2.3c18.84,0,38.49-16.58,47.52-27.08,5.67-6.6,7.07-13.2,8.09-18a19.12,19.12,0,0,1,1.67-5.53,33.16,33.16,0,0,1,4.29-5.22c3.5-3.74,7.86-8.39,10.68-16.82,2.15-6.4,3.71-8,8.87-13.18.9-.91,1.86-1.87,2.89-2.93,17.4-17.95,12.92-31.65,8.17-46.17-4-12.21,3-20,19.89-34.92,7.32-6.46,14.89-13.14,20.74-21.17,2.56-3.51,10.36-14.2,5.53-24.8-4.72-10.38-16.73-12.13-26.39-13.53-3.81-.55-9.57-1.39-11.4-2.53-8.08-5-13-15.46-17.81-25.56-1-2-1.9-4-2.85-5.93-1.7-3.44-3.4-7.6-5.19-12-4.76-11.65-10.14-24.87-19.31-34.08-8.25-8.27-23.79-12.26-37.5-15.78-4.61-1.18-9-2.3-11.84-3.3a13.67,13.67,0,0,0-7.5-.44c-6.68,1.48-10.84,3.11-13.93,5.46a15.45,15.45,0,0,0-4.65,5.93c-4.79-2.17-11.36-6.33-15.41-8.88l-.25-.16A16.71,16.71,0,0,0,474,479.48c-7.3-14.63-31.53-13.48-36.31-13.1-2.71.22-6.15.33-9.78.45-5.71.19-12,.41-18.26,1.07l.32-.85c4.74-12.5,17.35-20.91,31.37-20.91h7.43l98.39,15.52,19.24,6.41,18.25,16.5v8.68A11.93,11.93,0,0,0,586.1,499l33.81,61.36A13.39,13.39,0,0,0,636,566.23l9.84-3.44a172.35,172.35,0,0,0,61.32-37.18A11.91,11.91,0,0,0,708.81,510l-.7-1h6.24a6.85,6.85,0,0,1,5.07,2.21l16.09,17.86a6.18,6.18,0,0,1,1.2,1.94l17.76,46.28a12.88,12.88,0,0,0,9.45,7.86,14.31,14.31,0,0,0,2.83.29,13.44,13.44,0,0,0,9.24-3.63l8.45-8c5.36-5.07,25.06-45.46,25.06-45.46C773.68,379.75,638.21,283.65,500.5,284.7Z" transform="translate(-175.46 -47.96)"/><path class="c" d="M344.47,706.44a13,13,0,0,1,0-8.54,36.69,36.69,0,0,0-3.56-31.48,40.64,40.64,0,0,0-27.26-18.32l-29.5-5.46-56.9-41a13.63,13.63,0,0,0-11.95-1.92s-18-13.2-12.79-13.2c4.75,0,6.69-2.58,18.31-4.21,11-1.54,22-3.28,22.1-3.3a13,13,0,0,0,9.86-7.35,11.8,11.8,0,0,0-1.23-11.83l-16-22.27,23-15.54a12.7,12.7,0,0,0,3.74-3.92l35.57-58.84,14.34-14.56a50.24,50.24,0,0,0,10.65-55.46C318,378.16,306.48,365,295.93,358.78,146.05,488,173.15,660.43,213.22,740.86l103.65,27.91,5.64-1.73c21.32-6.56,33-28.33,26.1-48.53Z" transform="translate(-175.46 -47.96)"/><path class="c" d="M706.28,677.2a25.62,25.62,0,0,0-21.89-19,25,25,0,0,0-3-.18,25.75,25.75,0,0,0-22.66,13.48c-1.33,2.44-2.46,4.89-3.46,7.07-.54,1.16-1.32,2.86-2,4.1l-1.21.59c-6.86,3.31-19.65,9.48-24.67,25.51a44.08,44.08,0,0,0-1.3,20.44c-4,9.59-10.69,28.54,1.66,46.13,10.53,15,23.17,17.22,29.74,17.22h.07a32,32,0,0,0,5.16-.43c22-3.6,31.37-26.88,36.47-44.08L710.82,709a25.79,25.79,0,0,0,.21-13.94Z" transform="translate(-175.46 -47.96)"/><path class="d" d="M202.6,568a78.19,78.19,0,0,1,15.71-3.72c4.5-.64,9-1.3,12.72-1.86L209.85,533l37.46-25.38,36-59.6L299.18,432a32.11,32.11,0,0,0,6.93-35.44,52.88,52.88,0,0,0-9.61-13.8c-62.37,58.4-88.76,124.53-95.24,185.67l.38,0Z" transform="translate(-175.46 -47.96)"/><path class="d" d="M327.26,712.34a31.05,31.05,0,0,1,0-20.39,18.65,18.65,0,0,0-1.84-16,22.43,22.43,0,0,0-15.12-10l-33.5-6.21-58.32-42-6.6,2-7.37-5.41c-1.58-1.16-3.18-2.34-4.77-3.54,1.58,45,12.83,85.17,26.26,114.62l90.49,24.38.63-.2a21.67,21.67,0,0,0,13.18-10.77,18.49,18.49,0,0,0,1.07-14.47Z" transform="translate(-175.46 -47.96)"/><path class="d" d="M508.75,302.91l-35.54,40.73-89,29.58L362.48,423l29.74,39.47.71-1.87c7.4-19.53,26.84-32.66,48.38-32.66h8.86l101.28,16L575.74,452l27.07,24.47V491.6l30.94,56.15,6.11-2.13A154.54,154.54,0,0,0,690.77,516l-17.71-25.15h41.29A25.08,25.08,0,0,1,732.93,499L749.09,517a24.52,24.52,0,0,1,4.6,7.53l15,39.15,2.64-2.51c3-4,11.45-20,18.86-34.83C756.38,398,639.48,305.14,508.75,302.91Z" transform="translate(-175.46 -47.96)"/><path class="d" d="M601.79,601.62c-12.65-7.84-19-21.35-24.67-33.26-.91-1.91-1.79-3.8-2.71-5.65-2-4-3.77-8.4-5.73-13.19-4.1-10.07-8.76-21.49-15.36-28.11-4.7-4.73-18.78-8.34-29.15-11-4.42-1.13-8.62-2.21-12-3.32a27.72,27.72,0,0,0-5.07,1.58l-6.93,16L483.27,517c-5.94-2.7-13.24-7.31-17.84-10.22l-11.28-7.15,3.24-12.3c-1.33-1-6.05-2.95-14.64-2.95-1.65,0-2.93.08-3.65.14-3,.23-6.68.36-10.61.49-5.31.18-11.33.38-16.95,1l-13.72,1.46L393,491.66c-3.76,3.24-8.37,9.29-13.15,15.71-2.85,3.85-5.55,7.48-7.88,10-1.51,1.65-3,3.27-4.52,4.85-7,7.47-13.61,14.51-18,23.31-9.15,18.35-7.36,39.61,4.68,55.47,10.35,13.65,26.86,21.48,45.3,21.48a69.59,69.59,0,0,0,7.45-.41A92,92,0,0,0,417.45,620c6.78-1.59,11.6-2.51,16.15-2.51A27,27,0,0,1,452,624.43c8.07,7.18,8,14.74,8,20.85a29,29,0,0,0,.6,7.6c.76,3,3.57,5.91,6.55,9s6.32,6.58,8.25,11c7,15.79,3.25,26.5-1.05,38.91l-1,2.85c-3.51,10.3,2.74,23.34,8.86,36.09a163,163,0,0,1,6.7,15.29c7.87,22.13,14.3,31.58,17.69,33a10.37,10.37,0,0,0,4.17.8h0c10,0,25-10.54,33.73-20.74,2.63-3.06,3.27-6.09,4.09-9.93.73-3.47,1.55-7.4,4-11.31a49.83,49.83,0,0,1,6.51-8.13c3-3.18,5.15-5.49,6.71-10.14,3.33-10,6.82-13.78,13.22-20.24.84-.85,1.74-1.75,2.72-2.77,9.76-10.06,8.29-14.54,3.94-27.84-8.13-24.87,9.55-40.46,25.14-54.22,6.89-6.08,13.4-11.82,18.09-18.25a24.7,24.7,0,0,0,3.72-6.48c-1.56-1.54-8.95-2.61-12.5-3.13C612.13,605.51,606.52,604.53,601.79,601.62Z" transform="translate(-175.46 -47.96)"/><path class="d" d="M690.9,681.28a9.85,9.85,0,0,0-18.18-2.17c-1.08,2-2.06,4.1-3,6.14-1.58,3.43-3.21,7-4.91,8.93-1,1.1-3.42,2.29-5.79,3.43-5.67,2.74-13.44,6.49-16.41,15.95a28.92,28.92,0,0,0-.65,13.9c.43,2.94.53,4-.25,5.81l-.1.23c-3.14,7.36-9,21.06-.79,32.71,5.84,8.31,12,10.45,16.75,10.45a16.56,16.56,0,0,0,2.62-.21c10-1.65,17.61-12.1,23.78-32.91l11.59-39.06a9.75,9.75,0,0,0,.08-5.33Z" transform="translate(-175.46 -47.96)"/><path class="e" d="M493.43,284.59l18.35.16C681.87,291,818.33,431.28,818.33,602.86c0,175.51-142.81,318.31-318.33,318.31S181.67,778.37,181.67,602.85c0-173.33,139.25-314.75,311.76-318.26" transform="translate(-175.46 -47.96)"/><path class="b" d="M421.56,641.1l29.55-187.58c24.76-168.08-28.21-267.59-115.83-327.07l-69.4-44c28.61,38.41,13.6,135.27-1.66,182.25L190.52,511C118.86,788.86,316.89,918.23,490.4,920.89,433.93,878.43,405.13,769.08,421.56,641.1ZM310.92,848.56a268.68,268.68,0,0,1-64.36-60c-53.15-69.7-66.47-164-38.51-272.69L281.64,270c8.28-25.46,23.44-91.49,17.17-145.08l26.49,16.78c93.79,63.8,129.07,165,107.82,309.21L403.51,638.78c-13.63,106.22,2.75,202,42.23,260.39C396,892.06,349.74,874.55,310.92,848.56Z" transform="translate(-175.46 -47.96)"/><path class="f" d="M403.51,638.78l29.61-187.91c21.25-144.26-14-245.41-107.82-309.21l-26.49-16.78c6.27,53.59-8.89,119.62-17.17,145.08L208.05,515.87c-28,108.7-14.64,203,38.51,272.69a268.68,268.68,0,0,0,64.36,60c38.82,26,85.11,43.5,134.82,50.61C406.26,840.8,389.88,745,403.51,638.78Z" transform="translate(-175.46 -47.96)"/><path class="b" d="M365.89,815.18l.19-.22-1.15-1c-3.78-4.91-7.4-10-10.79-15.2-36.82-56.93-48.62-133.7-38.28-248.72l23.79-212.6-18.08-2L297.76,548.2c-8.12,90.37-2.85,158.33,17.13,212.28-26.05-33.5-49.2-73.05-66.85-115l-16.77,7.06c29.14,69.15,72.9,132.3,120.37,173.91,23.15,29.61,43.14,44.11,79.24,70.22q7.44,1.44,14.86,2.45l-7.66-12.29C403.22,861.66,387.81,843.25,365.89,815.18Z" transform="translate(-175.46 -47.96)"/></svg>